<mxfile host="65bd71144e">
    <diagram id="vKLRHpj9mCpmxACkDN42" name="Page-1">
        <mxGraphModel dx="736" dy="1495" grid="1" gridSize="10" guides="1" tooltips="1" connect="1" arrows="1" fold="1" page="1" pageScale="1" pageWidth="850" pageHeight="1100" math="0" shadow="0">
            <root>
                <mxCell id="0"/>
                <mxCell id="1" parent="0"/>
                <mxCell id="OadJtVnHZK5gSBZUFLeF-108" value="" style="edgeStyle=none;html=1;" edge="1" parent="1" source="OadJtVnHZK5gSBZUFLeF-106">
                    <mxGeometry relative="1" as="geometry">
                        <mxPoint x="368.98876404494376" y="105" as="targetPoint"/>
                    </mxGeometry>
                </mxCell>
                <mxCell id="OadJtVnHZK5gSBZUFLeF-106" value="sampleValue" style="ellipse" vertex="1" parent="1">
                    <mxGeometry x="320" y="10" width="80" height="30" as="geometry"/>
                </mxCell>
                <mxCell id="OadJtVnHZK5gSBZUFLeF-128" style="edgeStyle=none;html=1;entryX=0.703;entryY=-0.004;entryDx=0;entryDy=0;entryPerimeter=0;" edge="1" parent="1" source="OadJtVnHZK5gSBZUFLeF-109" target="OadJtVnHZK5gSBZUFLeF-120">
                    <mxGeometry relative="1" as="geometry">
                        <mxPoint x="870" y="80" as="targetPoint"/>
                        <Array as="points">
                            <mxPoint x="790"/>
                        </Array>
                    </mxGeometry>
                </mxCell>
                <mxCell id="OadJtVnHZK5gSBZUFLeF-109" value="&lt;div style=&quot;color: rgb(204, 204, 204); background-color: rgb(31, 31, 31); font-family: Menlo, Monaco, &amp;quot;Courier New&amp;quot;, monospace; font-weight: normal; line-height: 18px;&quot;&gt;&lt;span style=&quot;color: #dcdcaa;&quot;&gt;distanceFromHqInBlocks(sampleValue)&lt;/span&gt;&lt;/div&gt;" style="swimlane;whiteSpace=wrap;html=1;" vertex="1" parent="1">
                    <mxGeometry x="260" y="100" width="320" height="240" as="geometry"/>
                </mxCell>
                <mxCell id="OadJtVnHZK5gSBZUFLeF-110" value="Vertical Flow Layout" style="swimlane;startSize=20;horizontal=1;childLayout=flowLayout;flowOrientation=north;resizable=0;interRankCellSpacing=50;containerType=tree;fontSize=12;" vertex="1" parent="OadJtVnHZK5gSBZUFLeF-109">
                    <mxGeometry x="25" y="20" width="270" height="190" as="geometry"/>
                </mxCell>
                <mxCell id="OadJtVnHZK5gSBZUFLeF-111" value="sampleValue is 50 or 43" style="whiteSpace=wrap;html=1;" vertex="1" parent="OadJtVnHZK5gSBZUFLeF-110">
                    <mxGeometry x="36.25" y="40" width="197.5" height="40" as="geometry"/>
                </mxCell>
                <mxCell id="OadJtVnHZK5gSBZUFLeF-112" value="return 8" style="whiteSpace=wrap;html=1;" vertex="1" parent="OadJtVnHZK5gSBZUFLeF-110">
                    <mxGeometry x="20" y="130" width="100" height="40" as="geometry"/>
                </mxCell>
                <mxCell id="OadJtVnHZK5gSBZUFLeF-113" value="Yes" style="html=1;rounded=1;curved=0;sourcePerimeterSpacing=0;targetPerimeterSpacing=0;startSize=6;endSize=6;noEdgeStyle=1;orthogonal=1;" edge="1" parent="OadJtVnHZK5gSBZUFLeF-110" source="OadJtVnHZK5gSBZUFLeF-111" target="OadJtVnHZK5gSBZUFLeF-112">
                    <mxGeometry relative="1" as="geometry">
                        <Array as="points">
                            <mxPoint x="88.125" y="92"/>
                            <mxPoint x="70" y="118"/>
                        </Array>
                    </mxGeometry>
                </mxCell>
                <mxCell id="OadJtVnHZK5gSBZUFLeF-114" value="return 1" style="whiteSpace=wrap;html=1;" vertex="1" parent="OadJtVnHZK5gSBZUFLeF-110">
                    <mxGeometry x="150" y="130" width="100" height="40" as="geometry"/>
                </mxCell>
                <mxCell id="OadJtVnHZK5gSBZUFLeF-115" value="No" style="html=1;rounded=1;curved=0;sourcePerimeterSpacing=0;targetPerimeterSpacing=0;startSize=6;endSize=6;noEdgeStyle=1;orthogonal=1;" edge="1" parent="OadJtVnHZK5gSBZUFLeF-110" source="OadJtVnHZK5gSBZUFLeF-111" target="OadJtVnHZK5gSBZUFLeF-114">
                    <mxGeometry relative="1" as="geometry">
                        <Array as="points">
                            <mxPoint x="181.875" y="92"/>
                            <mxPoint x="200" y="118"/>
                        </Array>
                    </mxGeometry>
                </mxCell>
                <mxCell id="OadJtVnHZK5gSBZUFLeF-120" value="&lt;div style=&quot;color: rgb(204, 204, 204); background-color: rgb(31, 31, 31); font-family: Menlo, Monaco, &amp;quot;Courier New&amp;quot;, monospace; font-weight: normal; line-height: 18px;&quot;&gt;&lt;div style=&quot;line-height: 18px;&quot;&gt;&lt;span style=&quot;color: #dcdcaa;&quot;&gt;distanceFromHqInFeet(someValue)&lt;/span&gt;&lt;/div&gt;&lt;/div&gt;" style="swimlane;whiteSpace=wrap;html=1;" vertex="1" parent="1">
                    <mxGeometry x="660" y="90" width="320" height="240" as="geometry"/>
                </mxCell>
                <mxCell id="OadJtVnHZK5gSBZUFLeF-133" value="" style="shape=curlyBracket;whiteSpace=wrap;html=1;rounded=1;flipH=1;labelPosition=right;verticalLabelPosition=middle;align=left;verticalAlign=middle;size=0;" vertex="1" parent="OadJtVnHZK5gSBZUFLeF-120">
                    <mxGeometry x="200" y="30" width="20" height="120" as="geometry"/>
                </mxCell>
                <mxCell id="OadJtVnHZK5gSBZUFLeF-132" value="return inBlock * 264 ;" style="text;html=1;align=center;verticalAlign=middle;resizable=0;points=[];autosize=1;strokeColor=none;fillColor=none;" vertex="1" parent="OadJtVnHZK5gSBZUFLeF-120">
                    <mxGeometry x="90" y="75" width="130" height="30" as="geometry"/>
                </mxCell>
                <mxCell id="OadJtVnHZK5gSBZUFLeF-131" value="" style="shape=curlyBracket;whiteSpace=wrap;html=1;rounded=1;labelPosition=left;verticalLabelPosition=middle;align=right;verticalAlign=middle;" vertex="1" parent="OadJtVnHZK5gSBZUFLeF-120">
                    <mxGeometry x="80" y="30" width="20" height="120" as="geometry"/>
                </mxCell>
            </root>
        </mxGraphModel>
    </diagram>
    <diagram id="mFjk-_CBwT_3b2tu4sYg" name="Page-2">
        <mxGraphModel dx="736" dy="395" grid="1" gridSize="10" guides="1" tooltips="1" connect="1" arrows="1" fold="1" page="1" pageScale="1" pageWidth="850" pageHeight="1100" math="0" shadow="0">
            <root>
                <mxCell id="0"/>
                <mxCell id="1" parent="0"/>
            </root>
        </mxGraphModel>
    </diagram>
</mxfile>